<?xml version="1.0" encoding="UTF-8"?>
<svg version="1.1" viewBox="0 0 2048 2048" width="4096" height="4096" xmlns="http://www.w3.org/2000/svg">
<path transform="translate(1016,409)" d="m0 0 7 1 20 12 28 16 24 13 19 10 31 15 32 14 39 15 36 12 42 12 20 5 49 10 37 6 49 6 2 7 1 20v74l-2 38-3 36-4 35-2 6-20 8-27 10-5 1-1-3 5-34 5-51 2-31 1-25 1-45-24-3-35-6-55-12-35-10-24-7-37-13-43-17-21-9-39-19-24-12-24-14-10-5v173l9 6 6 8 3 7v13l-4 10-4 5-9 6-8 3h-10l-8-3-6-4-7-8-3-7-1-5v-8l3-10 9-10 6-4 1-10v-157l-1-5-20 11-23 13-23 12-29 14-19 8-36 15-27 10-33 11-42 12-30 7-40 8-25 4-18 2-3 1-1 2v28l2 50 4 51 5 44 7 43 8 41 12 48 11 36 12 33 16 37 12 24 15 25 10 15 10 14 11 14 11 13 9 11 17 17 7 8 8 7 12 11 8 7 17 14 16 12 18 13 27 18 20 12 12 7 11 6 34 17 18 7 5-1 18-10 22-14 14-10 16-11 14-11 16-13 10-9 8-7 10-9 12-11 31-31 7-8 13-14 7-8 12-14 10-11 8-10 14-17 13-17 12-15 20-26 14-18 20-26 26-34 14-18 11-14 11-15-5-4-24-13-23-13-12-7v-2l30-12 113-45 27-11 26-10 29-12h3v9l-8 49-8 51-17 103-6 41h-3l-11-13-11-14-13-15-8-10-7-8-4 2-13 15-12 14-9 11-9 10-9 11-36 42-9 11-11 12-9 11-12 13-9 11-7 7-7 8-30 32-30 30-8 7-14 13-11 9-9 8-14 11-15 12-14 10-23 16-28 17-24 14-34 18-26 12-21 8-6-1-23-10-30-14-23-12-24-14-16-9-17-11-19-13-32-24-15-13-11-9-12-11-10-9-25-25-7-8-9-10-11-14-10-13-14-19-11-17-15-26-15-29-11-25-17-45-9-28-10-37-7-30-5-24-7-40-8-64-4-46-2-39v-69l1-24 1-7 2-1 46-5 33-5 38-7 44-10 37-11 30-10 31-12 27-11 28-13 17-8 16-8 24-13 24-14 19-11z" fill="#2361A1"/>
<path transform="translate(1019,410)" d="m0 0 6 1 18 11 28 16 24 13 19 10 31 15 32 14 39 15 36 12 42 12 20 5 49 10 37 6 49 6 2 7 1 20v74l-2 38-3 36-4 35-2 6-20 8-27 10-5 1-1-3 5-34 5-51 2-31 1-25 1-45-24-3-35-6-55-12-35-10-24-7-37-13-43-17-21-9-39-19-24-12-24-14-10-5v173l9 6 6 8 3 7v13l-4 10-4 5-9 6-5 2h-9v-16l9-5 3-6-1-7-2-5-5-2-3-1z" fill="#73D37E"/>
<path transform="translate(1016,409)" d="m0 0h5l-2 1v253l4 1 4 2 4 7-1 8-4 5-6 3h-2l1 5v9l-1 2h6v1h-10l-8-3-6-4-7-8-3-7-1-5v-8l3-10 9-10 6-4 1-10v-157l-1-5-20 11-23 13-23 12-29 14-19 8-36 15-27 10-33 11-42 12-30 7-40 8-25 4-18 2-3 1-1 2-1 71-2-4-1 6-4 2v-2l-6-2-7 1-4 1-2-2 1-4h2l1-4h-5l-1-2 1-9-4-2 2-5 1-3-1-3h-3-2l-2 4-4 1-1-1v-6-2l-3-2-1-3v-10l1-5-3-9v-11l1-8-1-2v89l-2-4-1-22v-65l1-32 2-1 46-5 33-5 38-7 44-10 37-11 30-10 31-12 27-11 28-13 17-8 16-8 24-13 24-14 19-11z" fill="#2EACD5"/>
<path transform="translate(1192,742)" d="m0 0h13l20 2 12 2 10 4 11 4v2l6 2 6 3 5 5 3 1 5 6v4l-5 4-1 3-5 5-7 8-5 5-1 3-7 5-3-3-3-1-1-2-3-1-4-4-15-7-16-4h-18l-19 5-9 5-3 4-6 3-7 7-2 5h-2v3h-2l-2 6-5 13-1 4v28l4 13 5 10v2h2v3h2l3 5 8 8 3 1 4 4 5 2v2l11 3 8 2h28l14-4 13-7 1-33h-48v-41l1-1h95l1 1v96l-4 5-3 1-1 2-3 1-1 2-3 1-1 2h-3v2l-9 3v2l-12 5-12 4-1 1-26 4h-28l-19-3-16-5-13-5v-2l-10-4-5-5-5-4-3-1-7-8-6-6-8-14v-2h-2l-8-20-3-13v-9l3-7h2l3-9 5-10 4-17 1-6v-29l6-8 1-3 8-7 7-8 7-4 1-2 5-1v-2l7-2v-2l8-3h3v-2l22-5z" fill="#FDFDFD"/>
<path transform="translate(746,681)" d="m0 0h106l21 3 10 4 10 3 12 6v2l5 2 14 11 8 7 3 5v4h-2v2l-8 4-1 2-7 4-12 12-4 5-1 3-4-1-3-5-2-1-3-5-5-5-3-1-1-2-3-1v-2h-3v-2l-10-3-7-3-11-2-48-1v140l49-1 16-4 16-8 1-2 5-3 4-4 1-3 4-4 1-3h2l1-6h2l2-12 4 1v2h3l4 4 3 1v2h3l1 2 3 1 5 5 3 1v2h3l4 4 9 6-1 6h-2l-4 10h-2v3l-3 2-1 3-8 7-5 6-4 2-1 2h-3v2l-5 1v2h-3v2l-14 7-22 6-16 3h-106l-1-1v-228z" fill="#FBFDFC"/>
<path transform="translate(314,1428)" d="m0 0h95l16 2 16 8 8 7 4 3 5 9 5 18 2 18v32l-2 17-6 18-3 7h-2v3l-6 5-1 2-6 2v2l-10 4-14 3h-102l-2-1v-157z" fill="#FDFDFD"/>
<path transform="translate(980,743)" d="m0 0h26l20 4 14 6v2l6 2 7 8 5 6 2 1 1 5h2l5 12 2 16v11l-3 18-4 12-3 6h-2l-4 8-3 2-1 3-8 7-7 8-6 4-2 3-4 2-1 2-3 1-1 2-5 3-5 4-1 2-5 3-5 5-4 2-1 2-3 1-1 2-4 2-3 4 93 1v44h-165v-40l7-7 1-2 5-3 2-3 5-3 10-9 7-6 5-4 1-2 5-3 5-4 1-2 5-3 8-7 1-2 5-3 4-4 10-8 10-10 5-6 1-3h2v-3h2l2-7 1-4v-13l-3-10h-2l-2-4-3-1-3-3-8-3h-15l-9 3h-2v2l-7 4-9 9-4 7-4 4-4-2-7-4-1-2-3-1-1-2-3-1-2-3-3-1-2-3-3-1-5-5-1-4 8-11 1-3 8-7 3-4 7-4 6-4h2v-2l10-4 8-3z" fill="#FAFCFC"/>
<path transform="translate(1564,758)" d="m0 0h5l-2 4-12 14-12 15-18 22-9 10-9 12-11 14-10 11-11 14-14 17-11 14-9 11-10 12-7 9-11 14-42 51-11 13-9 11-9 10h-3v-2l-12-1-6-3-7-3-1-6 2-5-3-1-6 8h-2l-2 4-7 8-9 12-8 10-1-4 10-12 12-16 11-14 14-18 20-26 26-34 14-18 11-14 11-15-5-4-24-13-23-13-12-7v-2l30-12 113-45 27-11 26-10z" fill="#74D47D"/>
<path transform="translate(894,571)" d="m0 0h2l-1 9-1 4v14l3 13 6 11 9 10 1 2v34l-5-1-17-7-21-6-13-2-14-1h-128v230l-1 28h-2l-5-17-8-34-11-55-7-49-4-39-3-51v-30l7-2 43-8 31-7 51-14 33-11 46-17z" fill="#2EABD4"/>
<path transform="translate(724,1463)" d="m0 0h66l10 2 11 7 4 3 1 3 2 1 5 13 1 1 2 23v31l-3 16h-2l-1 5-2 5-11 9-7 4-10 2h-57l-16-4v51l-1 3h-24l-3-1v-140l4-13 6-9 6-5h2v-2l8-3z" fill="#FCFDFD"/>
<path transform="translate(1567,757)" d="m0 0h3v9l-8 49-8 51-17 103-6 41h-3l-11-13-11-14-13-15-8-10-7-8-4 2-13 15-12 14-9 11-9 10-9 11-24 28-10 12-2-4 18-22 2-5 12-11 9-10-1-5 3-1 1-6-4-1 1-5-5 1-4-5v-2l-13-3-1-4-1-3-4 4-4 5h-2l-2 5-4 4-2-1 14-17 11-13 10-13 12-15 18-22 13-16 11-14 9-11 12-14 13-16 9-12 10-11 8-10 13-16 8-10 12-14 1-2z" fill="#2B9FC6"/>
<path transform="translate(587,563)" d="m0 0h1v90l1 22v-86l2-2 1 9-1 7v9l3 9-1 4v13l5 1-1 9 4-1 2-3h2l1-2 3 2 1 4-3 5 1 3 2 1v10l5 1-1 4h-2l1 5 4-1 7-1 7 4 3-1-1-3 2-6h1l1-36h1l2 50 4 51 5 44 7 43 8 41 12 48 11 36 12 33 11 26 1 7-3-3-4 4-6-2-4-7-3-2-2-4-3-1v-3l-6-2-1-4 2-3-1-5-1-4 5-11 5 1-3-11-6-17-2-3-1 8 2 1-2 5 1 1v5h-2v6h-4l-1 3h-7l1-2-10 1h-11l-2-1-1 3-4-8-9-29-11-42-8-37-7-39-1-13h-2l-7-56-4-46-2-39v-69z" fill="#2887BF"/>
<path transform="translate(1635,1463)" d="m0 0h64l12 3 10 4 6 7 2 1 5 13 2 6 1 16v24l-2 21-5 13h-2l-2 4-5 6-10 5-10 2-1 1h-66v-2l-8-1-9-3v-2l-5-1-6-7v-2h-2l-5-17-1-7v-40l1-12 5-14h2l2-4 9-8 10-5z" fill="#FBFDFC"/>
<path transform="translate(1402,966)" d="m0 0 4 2h-2l1 5 13 4 4 6 3-1 2 1-1 5h6l-2 1-1 6-2 2 1 4-7 7-7 8-8 7-2 5-9 11-8 10v5l-12 14-9 10-9 11-12 13-9 11-7 7-7 8-10 9-1-2v-4-2l-7-2-10-5-5-4-5-3-1-6-8 7-8 8-8 7-7 7-6 7-20 20-10 8-6 7-6 5h-2l-2 4-5 3-4 5-5 3h-2v-6l2-4-8-3-6-2-1 1v7l7 7-2 4h-2l-3-6h-5l-1 1h-6l-4-3v-6l39-39 7-8 13-14 7-8 12-14 10-11 8-10 14-17 11-14 2 1 8-10 8-11 9-10 9-11 5 2-2 1-1 8 1 2 6 2 7 3 11 2v2l5-3 13-15 11-13 11-14 5-6 5-3 4-6 5-5z" fill="#2886BF"/>
<path transform="translate(1476,1428)" d="m0 0h96l2 1v28l-1 1-96 1-13 3-7 6-4 9-1 4v56l4 10 2 4 10 5 9 2h62l5-3 1-2 1-34h-57v-23l1-2h83v2h2v70l-3 10-5 7h-3v2l-11 3h-84l-14-3-11-4v-2l-5-2-7-7-7-14-4-15-1-11v-38l2-21 3-13h2l1-5 3-6 9-8 1-2 7-3h3v-2l15-3z" fill="#FCFDFD"/>
<path transform="translate(1259,1428)" d="m0 0h104l12 3 10 5 5 4v3h2l5 14 1 9v19l-3 15-5 10-4 4h-3v2l-14 5-6 1-70 1-8 4-3 9v22l115 1v28l-1 1h-142l-2-2v-58l4-13 2-5 6-5 1-2h3v-2l14-4 8-1 67-1 5-3 1-2h2l1-5v-21h-2v-2h-2v-2l-5-1-97-1-2-1v-28z" fill="#FDFDFD"/>
<path transform="translate(1019,410)" d="m0 0 6 1 18 11 28 16 24 13 19 10 31 15 9 4v3l4 3v2l12 3v2l6 2 4 1h3v2l3-1 11 4 7 3 6 2 2 5v3l-2 3h-5l-2 5-4 1-3-1 2 3 3-1v2h2l-1 4 4-1 1 1 2-1-1 5-2 1-2-1v2l-3 2 1 4-3 3-5-2v2h-2l-3-3-3 3-8-3-1 1-7-1-31-12-36-17-38-19-24-14-10-5v173l9 6 6 8 3 7v13l-4 10-4 5-9 6-5 2h-9v-16l9-5 3-6-1-7-2-5-5-2-3-1z" fill="#68D6A2"/>
<path transform="translate(1135,1463)" d="m0 0h74l8 3v2l6 2 6 12 2 9v38l-3 5h-100l2 15 5 8 9 4 6 1 77 1 1 1v24h-92l-10-2-10-5-6-7-2-1-6-15-2-18v-28l2-19 3-9 2-5h2v-3l4-4 6-2v-2l8-3z" fill="#FDFDFD"/>
<path transform="translate(1016,409)" d="m0 0h5l-2 1v253l4 1 4 2 4 7-1 8-4 5-6 3h-2l1 5v9l-1 2h6v1h-10l-8-3-6-4-7-8-3-7-1-5v-8l3-10 9-10 6-4 1-10v-157l-1-5-20 11-23 13-23 12-29 14-19 8-9 4-9 1 2-3 3-2h-2v-3l-4-2-3-1-2-5-4-1-1-8-2-2-8-1-6 2-5-1-3-6-6 1-2-2 4-4 31-12 33-15 21-10 16-8 24-13 24-14 19-11z" fill="#3FC3D6"/>
<path transform="translate(565,1463)" d="m0 0h95l1 1v22l-2 2-82 1-4 1-1 3v15l4 4 59 1 13 1 9 4 6 8 3 5 1 9v23l-1 8h-2l-1 5-1 3-4 4-10 4-5 1h-99l-1-1v-23l1-1 87-1 6-3 1-2v-15l-1-4-5-1-2-1-58-1-14-3-9-5-5-12v-5h-2v-22l4-10 7-10z" fill="#FCFDFD"/>
<path transform="translate(1281,1109)" d="m0 0h2l2 6 8 5 6 4 10 4 2 1v2l2 1v3l3-2-2 4-12 12-7 8-33 33-8 7-13 12-3-1 2-4-4 4-10 4-1 4-9 2-4-4-10 3-5 1-1-1h-6l-5 1-3-6v-2l-2-1 1-2 6-1v-4l-5 3-13 11-14 11-13 10-19 14-24 16-11 7-6 2-4 4h-3l-2-5-13-2-7 1v2l-3 2h-7l2-4 15-9 17-12 16-11 14-11 16-13 10-9 8-7 10-9 2-2h3v5l3 2h6l1-1h5l3 5v2l3-2-2-4-5-5v-7l3-2v2l4-1 5 3 5 2-2 6-1 4 7-4 6-7 4-2 5-5 8-7 5-6 10-8 9-9h2l2-5 8-7 7-8 8-8 8-7z" fill="#2573AD"/>
<path transform="translate(342,1458)" d="m0 0h66l10 3 2 1v2l4 1 6 8 3 10 2 7v35l-3 14-1 3h-2l-2 6h-2l-1 3h-2l-1 3-9 4-5 1h-65z" fill="#03050A"/>
<path transform="translate(848,1463)" d="m0 0h26l2 1 1 80 4 10 6 5 7 2h42l9-3 5-6 3-9 1-78 2-2h26v87l-4 16-2 6h-2l-2 4-7 6-7 4-9 2h-65l-15-4-2-1v-2l-5-2-5-4v-3h-2l-6-18-2-14v-74z" fill="#FCFDFC"/>
<path transform="translate(834,501)" d="m0 0 2 1-3 2 5 2 1-2h2l3 7 5-1 8-1 6 2 2 2v8l4 1 2 5 4 1 6 5-1 2-3 2 4 1-24 10-27 10-33 11-24 7-11 2h-8l-20 5-10-1-10-3-6-8-8-1-3-3-7 1-2-2 1-8-8-5v-2l-2-1 1-3-8 1 2-4 33-6 44-10 37-11 30-10z" fill="#32B2D6"/>
<path transform="translate(600,797)" d="m0 0h1l7 41 9 44 10 38 8 28 6 16 1-4 2 2h15l2 1 1-2 6 1 3 1 1-2h4v-6h2l-2-7 2-4-1-1v-8l2-4 6 19 5 14-1 3-5-1-4 10 2 9-2 3v3l6 3v3l4 1 2 4 5 5 2 4 5 1 3-1 1-3 2 2 1-3 12 25 11 20 12 19 13 19 3 7-4 3v2l-7 1-4-1-7 4-4 7-7 4h-7l-6-4-1-3-2-1v-2l-8-4-10-16-10-17-13-24-11-23-11-27-13-35-10-32-10-38-8-35-9-51z" fill="#2472AC"/>
<path transform="translate(1312,1014)" d="m0 0 5 2-2 1-1 8 1 2 6 2 7 3 11 2v2l5-2-2 4-9 10-9 11-13 15-9 10-7 8-9 10-14 15-15 16-11 12-20 20-10 8-6 7-6 5h-2l-2 4-5 3-4 5-5 3h-2v-6l2-4-8-3-6-2-1 1v7l7 7-2 4h-2l-3-6h-5l-1 1h-6l-4-3v-6l39-39 7-8 13-14 7-8 12-14 10-11 8-10 14-17 11-14 2 1 8-10 8-11 9-10z" fill="#40A386"/>
<path transform="translate(894,571)" d="m0 0h2l-1 9-1 4v14l3 13 6 11 9 10 1 2v34l-5-1-17-7-21-6-13-2-4-2-138-1v-1l75-1-3-1-3-6-7-6v-2l-4-2-7-6v-2h-4v-2l-2-2 4-2 5-1 1-2 42-12 27-9 46-17z" fill="#32B3D7"/>
<path transform="translate(1024,1428)" d="m0 0h24l2 1v34h33l2 2v22l-2 1h-33l1 66 4 6 3 1v2h27v24l-1 2h-34l-8-1-5-2v-2l-5-2-4-3v-3h-2l-4-13-1-1v-74h-20l-2-2v-23h22v-33z" fill="#FDFDFD"/>
<path transform="translate(1018,1009)" d="m0 0 12 2 9 6 6 7 4 11v10l-4 10-7 8-7 5-1 175-10 8-11-6-1-176-8-6-6-7-4-10v-13l4-10 7-8 8-4z" fill="#3FA187"/>
<path transform="translate(1377,550)" d="m0 0 5 2-1 3 4 1 2 6h2v2h-2v4l4-1h2l3-1 3 1 7-7 4-1 10 1v-3h2v2l2-1h18l6 1 1 13 1 44v22l-2 42-1 9-2 1v-2l-2-1 1-2-5-1-1-2v-3l3-1 1-4h3l-2-4-2-1-2-6h-2l-5-5-1-2-3-1-4 1v-5l-3-1 1-4 3-6h-2v-2l-3-2v-2h-5l1-8 1-3 2-1-5-2 1 5-2 2-4 3-3-1-2-14 1-4h-2l-1-9-2-2-9-1-4-1h-4v-2h-6l-6-2h-3l-5-5h-3l1 3h-5l-4-3-5-1-5 1-9-1-4-2v-4l4-1v-3-5h2v2h2l1-6 5-1 1-2 4 1v-2l2-1 1-2h2l1-2 10-3 1 3 4 1 2-5h5z" fill="#7FE275"/>
<path transform="translate(1384,915)" d="m0 0 2 1-2 3h5l2 3 4 1v-2l10 3v2l6 2 1 3-1 3 4-1-1-2 8-1 4-2v2h2l4-8 7-5-2 4-9 11-11 14-18 22-28 34-11 13-9 11-9 10h-3v-2l-12-1-6-3-7-3-1-6 2-5-3-1-6 8h-2l-2 4-7 8-9 12-8 10-1-4 10-12 12-16 11-14 14-18 20-26 26-34z" fill="#6AD8A1"/>
<path transform="translate(735,1488)" d="m0 0h43l9 3 6 5 3 7 1 6v33l-2 9-4 6-4 1v2l-6 2-8 1h-41l-14-2-1-1v-55l3-9 6-5z" fill="#04060A"/>
<path transform="translate(1647,1488)" d="m0 0h42l8 2v2l4 1 4 5 2 7v42l-3 8h-2l-2 4-7 3-7 1h-39l-10-2-5-4v-2l-3-1-2-5v-44l4-10 7-5z" fill="#03050A"/>
<path transform="translate(876,937)" d="m0 0h2l1 148 10 6 6 7 3 8v15l-4 9-6 7-12 6h-15l-10-5-5-5-4-5-3-8v-11l3-9 4-6 7-6 5-3v-143l1-2z" fill="#2470AB"/>
<path transform="translate(1567,757)" d="m0 0h3v9l-8 49-8 51-7 42-2 4-3 16h-1v-8l-3-5-2-5-3-5-4-3-1-6-5-2-2-5-5-1-10-3-4-3-2-7-7-4-2-5v-7l6-8-5 5-5 6-1-3 11-12 20-26 10-11 8-10 13-16 8-10 12-14 1-2z" fill="#31B3D7"/>
<path transform="translate(1317,628)" d="m0 0h15l10 5 7 7 4 7 1 4v14l-5 10-8 8-10 4h-13l-9-4-8-7-4-6v-2l-43 1-12 14-9 9-1 2-1 19-5 1-13-1-1-1v-28l5-4 7-8 16-16 6-7 51-1 2-6 5-7 10-6z" fill="#71D07E"/>
<path transform="translate(1105,975)" d="m0 0 4 2 14 8 1 1v72l-23 23-7 8-10 10-1 109-14 11-3 3h-2v-131l12-12 7-8 21-21z" fill="#41A388"/>
<path transform="translate(915,999)" d="m0 0h18l1 5v26l1 20 9 10 30 30 1 2v132l-2 3-15-8-3-3-1-118-9-10-8-7-23-23v-58z" fill="#2472AC"/>
<path transform="translate(715,649)" d="m0 0h138l3 2h-141v230l-1 28h-2l-5-17-8-34-11-55-5-33v-7l2 3v-9l-2-21-1-7v-8l-1-8 8 1 1-2 6-3 2-6 2-1 4 4 1 7 5-3 1 5v7l1 4v9l-1 9 1 8 1 19 1-121z" fill="#2786BF"/>
<path transform="translate(946,562)" d="m0 0h7l10 3 8 6 6 8 2 5v16l-4 9-6 7-9 5-1 84-2 2-9-10-8-8-1-2v-66l-5-2-8-7-5-7-2-8v-9l4-11 7-8 8-5z" fill="#3CB8D0"/>
<path transform="translate(1161,581)" d="m0 0h13l10 4 7 6 6 12v15l-6 12-8 7-5 3-1 73-15 3h-4v-77l-6-2-9-9-4-8-1-5v-9l4-11 5-7 10-6z" fill="#71D07F"/>
<path transform="translate(1066,537)" d="m0 0 5 1 13 7 1 1 1 69 13 14 7 8 8 10v88l-13 10-4 4h-2v-91l-3-7-12-13-14-16-1-20z" fill="#71D180"/>
<path transform="translate(1158 1e3)" d="m0 0 14 1 5 1 1 54 9 6 7 8 3 9v14l-6 12-7 6-10 4h-13l-12-6-7-8-3-7-1-5v-7l3-10 6-8 9-6h2z" fill="#3FA187"/>
<path transform="translate(492,1463)" d="m0 0h26l1 1v124h-30v-123z" fill="#F8FCFA"/>
<path transform="translate(1172,1184)" d="m0 0 1 2 4-1 5 3 5 2-2 6-1 4 4-1-5 5-14 12-14 11-13 10-19 14-24 16-11 7-6 2-4 4h-3l-2-5-13-2-7 1v2l-3 2h-7l2-4 15-9 17-12 16-11 14-11 16-13 10-9 8-7 10-9 2-2h3v5l3 2h6l1-1h5l3 5v2l3-2-2-4-5-5v-7z" fill="#2785BE"/>
<path transform="translate(1223,1125)" d="m0 0h7l5 1v3l4 2v2l6-1 3 7 3 1-8 7-3 5-8 7-11 10-5 4-6 7-6 5h-2l-2 4-5 3-4 5-5 3h-2v-6l2-4-8-3-6-2-1 1v7l7 7-2 4h-2l-3-6h-5l-1 1h-6l-4-3v-6l39-39 5-6 1 2 8-7 4-5h2l2-4z" fill="#399894"/>
<path transform="translate(587,563)" d="m0 0h1v90l1 22v-86l2-2 1 9-1 7v9l3 9-1 4v13l5 1-1 9 4-1 2-3h2l1-2 3 2 1 4-3 5 1 3 2 1v10l5 1-1 4h-2l1 5 4-1 7-1 7 4 3-1-1-3 2-6h1l1-36h1l1 28v43l-3 4h-2v2l-6 3-4-2-6 1-1 2-9 1-6-3v3l-4-1v-2h-2l-2-7 1-3v-8l-2-4 1 27-3 1v-10h-2l-3-52v-69z" fill="#2A9CC5"/>
<path transform="translate(1567,757)" d="m0 0h3v9l-8 49-8 51-7 42-2 4-3 16h-1v-8l-3-5-2-5-3-5-4-3-1-6-5-2-2-5-5-1-10-3-4-3-2-7-7-4-2-5v-7l6-9 3-3-1 5-1 3 4 1 5-4 6-1 2 10 3 1h10v2l7-1v-3h-5l-2-2-1-5-9-3 1-5 5-3 4-2 4-4 6-2 2 1v5l-3 3h-2l1 2 12-2 5 5v9l-2 6-4 30 9-53 7-48 4-21 2-13z" fill="#2EA8D2"/>
<path transform="translate(681,632)" d="m0 0h5l4 3-6 1 1 22 2 4 5-1v2h2v2h8l3 2h3l4-13 2-1v118l-1 18h-1l-1-42-1-7 1-5v-9l-1-9v-6l-5 2-3-10-4 1-1 5-4 3h-3l-1 3-7-1 1 9v10l1 6 2 22v6l-2-1-2-4-5-47-3-51v-30z" fill="#2B9EC6"/>
<path transform="translate(806,941)" d="m0 0h13l6 1v62l-9 11-11 12-7 8-18 18-5-5-6-9 1-4 7-7 7-8 14-15 7-9v-54z" fill="#2888C0"/>
<path transform="translate(1144,1487)" d="m0 0h50l4 1v2l4 1 2 3v21h-75v-16l3-6 5-4z" fill="#050A12"/>
<path transform="translate(1547,768)" d="m0 0 4 2-1 6-4 3-3 7-9 4-6 3h-2l-1 10-7 12h-2l-2 4-8 7-6-2-9-4-6 1-2-4v-3l4-1-1-2-3-1-2-5-7-2-1-4 10-6 11-4h2l1-4 39-15h5z" fill="#7FE275"/>
<path transform="translate(871,938)" d="m0 0h6v148l-2-2-1-31v-18l-3 6-3 1-4-11v35l-2 20-2 1v-146h5v-2z" fill="#2887C0"/>
<path transform="translate(1012,1010)" d="m0 0 7 1v15l7 3 5 6 1 7-3 6-6 4-5 1 2 5v54l-2-1v-14l-6-2-1-1-1-7v-18l-5-2-8-7-5-8-2-6v-13l4-10 7-8 8-4z" fill="#389594"/>
<path transform="translate(1172,1184)" d="m0 0 1 2 4-1 5 3 5 2-2 6-1 4 4-1-5 5-14 12-14 11-13 10-6 2-3-1-2-5-5-4v-2l-6 3-5 1-4-1 7-8 11-9 13-12 8-7 3-3h3v5l3 2h6l1-1h5l3 5v2l3-2-2-4-5-5v-7z" fill="#2A9EC6"/>
<path transform="translate(1009,1069)" d="m0 0h1l1 18 1 7 6 3 1 15 1 106 2 15-1 9 1 6-3 3-10-6z" fill="#2472AC"/>
<path transform="translate(1082,1099)" d="m0 0h1v109l-14 11-3 3h-2v-70l2-4 2-9h2l2-4h2l-1-4 4 4 1 9 2 3 1 18z" fill="#379495"/>
<path transform="translate(1029,1067)" d="m0 0 2 1-1 175-7 6-2-1-1-10 1-8-2-12-1-105 2-1 1 9 5 4 1 5 1-10z" fill="#369195"/>
<path transform="translate(915,999)" d="m0 0h18l1 5v26l1 20 9 10 9 9 3 5 2 3-5-2-2-4h-2l-4 5-10 1-4-5-1-5 5-6 3-1 2 1-5-5-4-6-2 6-5 1-6-3h-2l-1 3z" fill="#2887BF"/>
<path transform="translate(1282,732)" d="m0 0h77l1 5-3 15-13 1h-37l-11-9-14-10z" fill="#6FCE80"/>
<path transform="translate(974,1092)" d="m0 0h1v132l-2 3-15-8-3-3v-118h1l1 94 2-7h2l2-4 4-7 4-3 2 3z" fill="#2361A1"/>
<path transform="translate(974,588)" d="m0 0 2 4-2 11-3 5-5 5-9 7-1 2v69l-2 2-7-1-5-6v-51l2-7 7-1 4-9 1-3 8-4 2-4 2-1 4-9z" fill="#32B4D8"/>
<path transform="translate(1228 1e3)" d="m0 0h3l1 21 7 8 8 8-6 8-5 7-4-2-20-20v-27l1-1z" fill="#40A188"/>
<path transform="translate(492,1417)" d="m0 0h26l1 3v24l-2 3h-27l-1-2v-26z" fill="#FCFDFC"/>
<path transform="translate(676,913)" d="m0 0 2 3 8 27 11 31 13 31 1 7-3-3-4 4-6-2-4-7-3-2-2-4-3-1v-3l-6-2-1-4 2-3-1-5-1-4 5-11 5 1 1-4-10-30-4-15z" fill="#2782BB"/>
<path transform="translate(796,1007)" d="m0 0v3l-1 3h2l1-4 3-2-2 10 1 2 7 1v4l-6 8-21 21-5-5-6-9 1-4 7-7 7-8z" fill="#2471AC"/>
<path transform="translate(1010,1087)" d="m0 0h1l1 7 6 3 1 15v98h-1l-1-40-4 7-2 24h-1z" fill="#2786BF"/>
<path transform="translate(1060,1272)" d="m0 0 13 2 2 6 3 1-15 9-17 9-5-2-3-1v-6l-3-2h-8v2h-6v-2l20-11h3 6l3-1v-2z" fill="#2472AC"/>
<path transform="translate(715,649)" d="m0 0h138l3 2h-141v230l-1 28h-2l-5-17v-5l2 4 1 3 1-7 1-39 1-58 1-140z" fill="#2469A6"/>
<path transform="translate(1066,537)" d="m0 0 5 1 13 7 1 1v69h-1l-1-57-1-3-1 16h-3l1 6-1 1 3 2-1 7-3 1-4-1-1-4-2-4 2-8-3-1-1-7v-17l2-6z" fill="#65D19F"/>
<path transform="translate(806,941)" d="m0 0h13l6 1v62l-6 7v-3l3-3 1-5 1-57h-17l1 33 2-9 2 4v6l4 9h5l1-2v11l-2 11-4 5-2 2-1-9-11 2 2-4 4-4-5 4-4 3 2-4 4-5v-54z" fill="#2573AD"/>
<path transform="translate(1165,1073)" d="m0 0 8 1 5 4 2 5-1 8-4 5-5 2-8-1-5-5-1-2v-9l6-7z" fill="#020106"/>
<path transform="translate(1016,1028)" d="m0 0h8l6 5 2 5-1 7-4 5-4 2-9-1-5-4-2-8 3-7 3-3z" fill="#020106"/>
<path transform="translate(1166,598)" d="m0 0 6 1 7 6 1 8-3 6-6 4h-6l-6-4-3-5v-7l3-5 4-3z" fill="#020106"/>
<path transform="translate(867,1101)" d="m0 0 7 1 5 4 1 2v10l-5 6-2 1h-9l-5-4-2-4v-8l6-7z" fill="#020106"/>
<path transform="translate(1016,664)" d="m0 0h7l4 2 4 7-1 8-4 5-5 2-7-1-5-4-2-5v-6l4-6z" fill="#020106"/>
<path transform="translate(1321,646)" d="m0 0h8l7 6v10l-5 6-2 1h-9l-6-5-1-2v-9l5-6z" fill="#020106"/>
<path transform="translate(948,581)" d="m0 0 7 1 5 5 1 2v7l-4 6-4 2h-8l-5-4-2-5 1-7 4-5z" fill="#020106"/>
<path transform="translate(915,999)" d="m0 0h18l1 5v26l1 20 9 10 9 9 3 5 2 3-5-2-2-4h-2l-4 5-10 1-4-5-1-5 5-6 3-1 2 1-5-5-3-5v-51h-17z" fill="#267EB8"/>
<path transform="translate(894,571)" d="m0 0h2l-1 9-1 4v14l3 13 6 11 9 10 1 2v34l-5-1-11-5-1-4 9 3 5 2-1-28-7-7-5-7-4-9-1-8v-22l2-8-7 1 2-2z" fill="#37A8C7"/>
<path transform="translate(914 1e3)" d="m0 0h1l1 54 3-1 5 3h5l1-9 6 9 4 3v2l-5 1-3 4-2 1 3 7 6 6-1 2-24-24z" fill="#246FAA"/>
<path transform="translate(1152,481)" d="m0 0 7 1 23 10 34 13 6 2-3 1v2l2 1-1 3-5 1-2-2 1-3-4-2v-2l-7-1-9-4-9-3h-2v-2l-6 1-7-4v-2l-9-1-9-8z" fill="#6AC883"/>
<path transform="translate(645,593)" d="m0 0 11 3v1h8l4-2h7l4-2 4 1 2 2-25 4-18 2-3 1-1 2-1 25h-3l-3-17-3-10 4-4z" fill="#2A96C1"/>
<path transform="translate(807,992)" d="m0 0h1l1 6-5 5-2 3 5-2h6l2 10-5 8-2 2-3-1v-2l-6-2-1-5 2-6-3 5h-2l-1 3v-5l4-6 8-7z" fill="#2785BE"/>
<path transform="translate(1568,760)" d="m0 0 1 2-4 26-4 25-8 51-6 35h-1v-8l4-28 2-6 2-18 3-21 3-15 4-26 3-10-6 4-7 8v-3l10-11z" fill="#41C8DA"/>
<path transform="translate(590,708)" d="m0 0h1v10l3-1 4 21v15l1 2 2 24h-3l-1-12h-2l-5-47z" fill="#2991BF"/>
<path transform="translate(926,580)" d="m0 0h6l3 2 1 17-5 3h-4l-1 2v-3h-2l-1-2v-13z" fill="#32B4D8"/>
<path transform="translate(675,1050)" d="m0 0 5 3 5 5 6 7 3 7 2 6 4 6 1 8v3l-4-4-18-32-4-7z" fill="#2363A2"/>
<path transform="translate(1536,770)" d="m0 0 2 1-1 2-6 3-3 6-4 1-1 3-3 2h-7l-2-4-10 3-4-1 2-2z" fill="#6ECC80"/>
<path transform="translate(1524,811)" d="m0 0v3l-11 13-10 13-8 10-9 10-11 14-14 17-11 14-3 2 2-6 5-5 1-2h2l2-5 10-11 3-6 4-4 6-9 8-7 7-8 11-14 8-10z" fill="#6BDAA3"/>
<path transform="translate(589,562)" d="m0 0h1v117l-2-4-1-22v-65z" fill="#39BAD2"/>
<path transform="translate(765,576)" d="m0 0 4 1-26 7-42 9h-5l2-2h5v-2l8-2 4-2 6-2h9l24-6h8z" fill="#32A7C9"/>
<path transform="translate(806,941)" d="m0 0h13l6 1v62l-6 7v-3l3-3 1-5 1-57h-17v55l-7 7v-3l5-6v-54z" fill="#2366A4"/>
<path transform="translate(795,647)" d="m0 0h45l18 1 10 2v1h-12l-3-1-138-1v-1z" fill="#41C8DA"/>
<path transform="translate(1027,497)" d="m0 0h1l1 144 1 9-3-1-1-31v-83l-1-2 1-13z" fill="#76D67D"/>
<path transform="translate(676,579)" d="m0 0 5 2v2h2l2 7-5 1-1 3-4 2h-7l-4 2h-12v-1l12-2v-5l7-1 4-3 2-5-2-1z" fill="#34B6D8"/>
<path transform="translate(790,518)" d="m0 0m-3 1 3 1-8 4-26 7-23 6-35 7-4-1 6-2 42-9 27-8z" fill="#41C8DA"/>
<path transform="translate(1381,921)" d="m0 0h3v2l9 1-1 5-4 2h-4v3l-6 1-1 4-1 2 2 1-3 1-2-5-1-4 4-6 2-5z" fill="#74D57E"/>
<path transform="translate(1010,1087)" d="m0 0h1l1 7 6 3 1 15-1 2-6 1-1 16h-1z" fill="#2BA1C8"/>
<path transform="translate(792,1133)" d="m0 0 3 1 3 5 11 11-4 1-2 2-5-2-8-7-3-2v-4l4-1z" fill="#2472AC"/>
<path transform="translate(1078,590)" d="m0 0h2v2h2l-1 5v14h-6l-3 8-1 2 2 1-2 2-2-4 1-4 1-2h-2l1-2h2l1-4-2-1 4-4-1-3h2l1 1 1-5-3 3-3-1 2-6z" fill="#6BD9A1"/>
<path transform="translate(871,938)" d="m0 0h6v41h-1l-1-24v-13l-12 1-1 7v26h-2v-35h5v-2z" fill="#2A99C2"/>
<path transform="translate(1405,661)" d="m0 0h3v2h-2v2l3 1-2 5 7-2 4-1 4 2v-2h2l1-3h2l1 9 1 2-5 2-2-3v-3l-4 2 1 3-4-2-1-2-2 2-4-2h-3l-1-4z" fill="#7FE275"/>
<path transform="translate(877,578)" d="m0 0 3 1-6 5-18 7-10 3-7-1 2-2z" fill="#35A5C5"/>
<path transform="translate(683,763)" d="m0 0 4 4 3 27 1 1 2 16-3-4v-4h-2l-5-33z" fill="#2889BA"/>
<path transform="translate(723,630)" d="m0 0h2l2 7 1 3 4 1-1 3 9 1-2 3h-9v-3l-2-1v-3h-6-3-2l2-8 4-2z" fill="#31B3D7"/>
<path transform="translate(845,1124)" d="m0 0h7l4 2-1 3 1 6-2 4-4-2-5-5-2-4z" fill="#2362A1"/>
<path transform="translate(891,574)" d="m0 0h3l-1 8v22l-3-2-1-17v-6l-10 3-3-1 6-5z" fill="#3EC1D6"/>
<path transform="translate(1522,818)" d="m0 0 1 4-6 16h-10l5-8 9-11z" fill="#2EACD6"/>
<path transform="translate(875,536)" d="m0 0m-2 1h8l-4 3-28 11-5 2-3-1 4-1 2-4 11-3 3 1 2-4z" fill="#339DC2"/>
<path transform="translate(1066,538)" d="m0 0 5 2-2 8v18l-1 1-1 23h-1z" fill="#71D78D"/>
<path transform="translate(823,505)" d="m0 0h2v2l-5 2-3 3-16 6-8 1-2-3 27-9z" fill="#36A9C9"/>
<path transform="translate(1346,1051)" d="m0 0h3l2 1 1 4-1 3h7l5 3v1l-10-1-5 1-3-3v-2l-5-1 5-5z" fill="#2573AD"/>
<path transform="translate(765,576)" d="m0 0 4 1-26 7-14 3-4-1 7-1v-2l14-4 11-2z" fill="#3097BF"/>
<path transform="translate(1159 1e3)" d="m0 0h13l4 1v16h-1l-1-13-13-1-1 26h-1z" fill="#66D3A1"/>
<path transform="translate(1525,812)" d="m0 0v3l-13 16-6 8-8 10-8 9-4 4 1-4 10-11 20-26z" fill="#41C6D6"/>
<path transform="translate(712,860)" d="m0 0h1l1 6v13l-1 28h-2l-4-15v-5l2 4 1 3 1-7z" fill="#246FAA"/>
<path transform="translate(588,556)" d="m0 0h2l1 2 5-1h7l-4 1v2l-3 3-4 6-1 6h-3z" fill="#2B9CC3"/>
<path transform="translate(1303,1023)" d="m0 0v3l-9 10-8 11-8 10-1-4 10-12 11-15 4-2z" fill="#56BB9D"/>
<path transform="translate(1220 1e3)" d="m0 0h10v20h-1v-17l-14 1-1 24h-1v-27z" fill="#63CDA1"/>
<path transform="translate(653,822)" d="m0 0h2l1 10h2l4 20v10l-2-3-6-27z" fill="#298EBB"/>
<path transform="translate(640,721)" d="m0 0 2 4v13h-1l-1 7-5-1-1-2v-8h3l2 1z" fill="#2FA8CB"/>
<path transform="translate(1206,503)" d="m0 0 7 1 9 3-3 1v2l2 1-1 3-5 1-2-2 1-3-4-2v-2l-4-1z" fill="#68C986"/>
<path transform="translate(645,765)" d="m0 0h1v5h2l2 22v6l-2-1-3-15-1-16z" fill="#2A98C2"/>
<path transform="translate(791,607)" d="m0 0h7l-1 3-18 5-9-1 4-2z" fill="#34A2C5"/>
<path transform="translate(737,533)" d="m0 0m-5 1h5v2l-39 8-4-1 6-2z" fill="#41C8DA"/>
<path transform="translate(1553,780)" d="m0 0 3 1 2 6 2 5-4 1-4-4-5-1z" fill="#2EACD6"/>
<path transform="translate(621,889)" d="m0 0 5 5 3 12 2 10v11h-1l-2-13-6-21z" fill="#2573AD"/>
<path transform="translate(1476,947)" d="m0 0 4 2 5 4v3l4 2 2 4 3 2 1 3 4 4 3 4-1 2-12-14-9-11-4-2-3 2 2-4z" fill="#2C7A9F"/>
<path transform="translate(590,689)" d="m0 0 1 4h2l1 24-3 1-1-10z" fill="#31ACCD"/>
<path transform="translate(666,1008)" d="m0 0 4 1 5 1-4 11-4-2-2-7z" fill="#2786BF"/>
<path transform="translate(1019,1218)" d="m0 0h1l2 15-1 9 1 6-3 1-1-8v-17z" fill="#2995C4"/>
<path transform="translate(596,767)" d="m0 0h1l2 12 2 2 1 5v8l-1 3h-2l-3-22z" fill="#2781B6"/>
<path transform="translate(963,1082)" d="m0 0 4 1 7 7v12l-1 9-2-4v-15l-7-7z" fill="#267EB9"/>
<path transform="translate(1436,973)" d="m0 0 2 3 1 2 2-1-1 4-3 5-5 1-2-2 3-6h2l-2-4z" fill="#2887C0"/>
<path transform="translate(650,548)" d="m0 0 7 1-3 2-10 2-17-1v-1z" fill="#3198C1"/>
<path transform="translate(894,571)" d="m0 0h2l-1 9-1 4v14l2 13-2-2-2-9v-18l2-8-7 1 2-2z" fill="#2978A3"/>
<path transform="translate(956,1095)" d="m0 0 2 1 1 9v12l-1 9-2-4z" fill="#2887C0"/>
<path transform="translate(601,794)" d="m0 0h2l3 21 1 9-3-2-3-19z" fill="#2A9DC7"/>
<path transform="translate(1552,779)" d="m0 0v3l-10 13-12 14-1 2-2-1 8-10 13-16z" fill="#41C8DA"/>
<path transform="translate(860,941)" d="m0 0h5v2h-2l-1 7v26h-2z" fill="#2BA1C8"/>
<path transform="translate(1386,1051)" d="m0 0 1 3-11 13-4-1 9-11z" fill="#288FBD"/>
<path transform="translate(828,596)" d="m0 0 2 1-6 3-3 3-7 1-12 1 4-2z" fill="#2F94BD"/>
<path transform="translate(1027,611)" d="m0 0h1l1 30 1 9-3-1-1-31v-6z" fill="#75D680"/>
<path transform="translate(843,592)" d="m0 0m-7 1h7v2l-12 5h-5l4-5z" fill="#3AB4CE"/>
<path transform="translate(1326,1100)" d="m0 0 7 1-2 1 1 4-3 3-4 1-1-8z" fill="#2573AD"/>
<path transform="translate(1485,860)" d="m0 0 1 3-11 13-9 11-2 1 2-4 13-16z" fill="#3E9F8B"/>
<path transform="translate(640,699)" d="m0 0h1l2 25v10h-1l-1-9-2 1z" fill="#2879A9"/>
<path transform="translate(790,518)" d="m0 0m-3 1 3 1-8 4-12 3-4-1 6-3z" fill="#40C7D9"/>
<path transform="translate(1374,997)" d="m0 0 1 3-8 10h-2l-1 4-4 2-2 4-2-1 12-14z" fill="#34A0A9"/>
<path transform="translate(1384,915)" d="m0 0 2 1-2 3h5l2 3 2 2-3 1-2-1-1 2-4-4-4 1 2-4z" fill="#65CE9C"/>
<path transform="translate(679,593)" d="m0 0 4 1 2 2-19 3h-6l8-4h7z" fill="#2E91BD"/>
<path transform="translate(1406,934)" d="m0 0 1 2 4-1 3 1 1 3-5 2-3-1-1 3-3-1 2-5z" fill="#74D680"/>
<path transform="translate(687,790)" d="m0 0 1 4 3 1 2 16-3-4v-4h-2z" fill="#288FBD"/>
<path transform="translate(1525,812)" d="m0 0v3l-13 16-2 3-2-1 9-12z" fill="#41C5D4"/>
<path transform="translate(808,561)" d="m0 0m-2 1 7 1-3 2-20 6-3-1 8-3 6-2h4z" fill="#2B84B0"/>
<path transform="translate(1066,538)" d="m0 0 5 2-2 8v3l-3 1z" fill="#72D788"/>
<path transform="translate(1213 1e3)" d="m0 0h6l-1 3h-3l-1 24h-1z" fill="#65D3A0"/>
<path transform="translate(927 1e3)" d="m0 0h5v34h-1l-1-32h-3z" fill="#2BA1C8"/>
<path transform="translate(1400,966)" d="m0 0 2 1-7 9h-2l-2 5-4 4-2-1 14-17z" fill="#34A0AA"/>
<path transform="translate(712,642)" d="m0 0 5 1v5h-2l-1 5-2-2-2-7h2z" fill="#32B5D8"/>
<path transform="translate(853,545)" d="m0 0h3v2h-2v2l-10 4-3-1 4-1 2-4z" fill="#35A4C5"/>
<path transform="translate(1564,758)" d="m0 0h5l-2 4-8 9v-3l3-3 1-3-3-2z" fill="#64CFA1"/>
<path transform="translate(909,655)" d="m0 0h1v8l-10-3-1-2 9-2z" fill="#2CA8D1"/>
<path transform="translate(728,623)" d="m0 0h5l-4 1v2l8-1-2 2h-21v-1z" fill="#2784B6"/>
<path transform="translate(1083,612)" d="m0 0 1 3 4 2 7 8-2 1-2-1v-2l-5-2v-2l-3-3v-2l-2-1z" fill="#5CC29E"/>
<path transform="translate(705,588)" d="m0 0h7l3 2-14 3h-5l2-2h5v-2z" fill="#2F90BA"/>
<path transform="translate(1303,1023)" d="m0 0v3l-9 10-2 1 1-4 5-7 4-2z" fill="#5DC59E"/>
<path transform="translate(1495,786)" d="m0 0 2 1-3 3-7 3-5-1 3-2z" fill="#65C283"/>
<path transform="translate(918,738)" d="m0 0 2 1-17 17v-3l5-6 8-7z" fill="#22515A"/>
<path transform="translate(1066,537)" d="m0 0 5 1 12 6-4 2-8-4-3-3z" fill="#57B89E"/>
<path transform="translate(1204,534)" d="m0 0 5 2v3l-9 2 1-4 3-1z" fill="#72D78A"/>
<path transform="translate(641,741)" d="m0 0h1l1 9v9l-3 1-1-6 1-1z" fill="#2BA1C8"/>
<path transform="translate(837,551)" d="m0 0m-3 1 7 1-2 2-9 3-3-1h2l1-3z" fill="#329BC2"/>
<path transform="translate(1389,597)" d="m0 0 7 1 6 1v3l-17-2z" fill="#5BB487"/>
<path transform="translate(669,545)" d="m0 0h5l-2 3-8 1-8-1v-1z" fill="#2F93BE"/>
<path transform="translate(1213,508)" d="m0 0 8 2-1 4-5 1-2-2z" fill="#6BD9A0"/>
<path transform="translate(1522,818)" d="m0 0v3l-10 13h-3l11-14z" fill="#2BA1C8"/>
<path transform="translate(887,655)" d="m0 0 5 1 4 2 1 3-9-2-3-2h2z" fill="#329DC3"/>
<path transform="translate(1073,611)" d="m0 0 1 4-3 6 2 1-2 2-2-4 1-4 1-2h-2l1-2z" fill="#6BDAA3"/>
<path transform="translate(627,552)" d="m0 0h10v2l-7 1h-8l1-2z" fill="#3EC3D7"/>
<path transform="translate(823,505)" d="m0 0h2v2l-5 2-3 3-4-1-1-2z" fill="#3198BF"/>
<path transform="translate(1489,961)" d="m0 0 5 3 1 3 4 4 3 4-1 2-12-14z" fill="#2975A1"/>
<path transform="translate(814,602)" d="m0 0m-4 1h4v2l-9 3-4-1 1-2z" fill="#3FC5D8"/>
<path transform="translate(1117,984)" d="m0 0h5l2 2v14h-1l-1-11z" fill="#51B893"/>
<path transform="translate(809,510)" d="m0 0h5l-1 3-4 2-4-1-2-2z" fill="#36A8C7"/>
<path transform="translate(675,1050)" d="m0 0 5 3 1 4 3 4-1 3-4-5-4-7z" fill="#2367A5"/>
<path transform="translate(779,1037)" d="m0 0 4 1-1 5-4-1-1-4z" fill="#2887C0"/>
<path transform="translate(934,506)" d="m0 0h5l-5 4-3 2-3-1 2-4z" fill="#32B4D8"/>
<path transform="translate(1105,975)" d="m0 0 4 2 3 2v2l-6 1z" fill="#4FB19A"/>
<path transform="translate(853,648)" d="m0 0 11 1 4 2h-12l-3-1z" fill="#3CBFD6"/>
<path transform="translate(1164,537)" d="m0 0 9 2 1 4-10-3z" fill="#60BF8E"/>
<path transform="translate(823,556)" d="m0 0m-1 1 5 1-3 2-8 3-3-1h2l1-3 4 1v-2z" fill="#2D90BC"/>
<path transform="translate(1023,1301)" d="m0 0 4 2 2 2-4 3h-2z" fill="#2573AD"/>
<path transform="translate(1010,1225)" d="m0 0 3 3-1 11h-2z" fill="#2887C0"/>
<path transform="translate(1354,1021)" d="m0 0 1 2-6 8-3 3-2-1z" fill="#35A0A6"/>
</svg>
